<mxfile host="app.diagrams.net" modified="2024-06-09T10:31:57.089Z" agent="Mozilla/5.0 (Windows NT 10.0; Win64; x64) AppleWebKit/537.36 (KHTML, like Gecko) Chrome/125.0.0.0 Safari/537.36" etag="fvhROrq8m88mD6UJGvwd" scale="0.8" border="15" version="24.5.2" type="device">
  <diagram name="Page-1" id="RXJpmtvG1LazTKa4miqF">
    <mxGraphModel dx="1050" dy="522" grid="1" gridSize="10" guides="1" tooltips="1" connect="1" arrows="1" fold="1" page="1" pageScale="1" pageWidth="827" pageHeight="1169" math="0" shadow="0">
      <root>
        <mxCell id="0" />
        <mxCell id="1" parent="0" />
        <mxCell id="p6ulh9Zvrn2zn8_a1JV_-1" style="edgeStyle=orthogonalEdgeStyle;rounded=0;orthogonalLoop=1;jettySize=auto;html=1;exitX=1;exitY=0.5;exitDx=0;exitDy=0;strokeWidth=3;" parent="1" source="p6ulh9Zvrn2zn8_a1JV_-2" edge="1">
          <mxGeometry relative="1" as="geometry">
            <mxPoint x="280" y="160" as="targetPoint" />
          </mxGeometry>
        </mxCell>
        <mxCell id="p6ulh9Zvrn2zn8_a1JV_-2" value="" style="ellipse;whiteSpace=wrap;html=1;strokeWidth=3;" parent="1" vertex="1">
          <mxGeometry x="50" y="120" width="120" height="80" as="geometry" />
        </mxCell>
        <mxCell id="p6ulh9Zvrn2zn8_a1JV_-3" style="edgeStyle=orthogonalEdgeStyle;rounded=0;orthogonalLoop=1;jettySize=auto;html=1;exitX=1;exitY=0.5;exitDx=0;exitDy=0;entryX=0;entryY=0.5;entryDx=0;entryDy=0;strokeWidth=3;" parent="1" source="p6ulh9Zvrn2zn8_a1JV_-4" target="p6ulh9Zvrn2zn8_a1JV_-10" edge="1">
          <mxGeometry relative="1" as="geometry" />
        </mxCell>
        <mxCell id="p6ulh9Zvrn2zn8_a1JV_-4" value="" style="rounded=1;whiteSpace=wrap;html=1;strokeWidth=3;" parent="1" vertex="1">
          <mxGeometry x="280" y="122.5" width="120" height="70" as="geometry" />
        </mxCell>
        <mxCell id="p6ulh9Zvrn2zn8_a1JV_-5" style="edgeStyle=orthogonalEdgeStyle;rounded=1;orthogonalLoop=1;jettySize=auto;html=1;exitX=1;exitY=0.5;exitDx=0;exitDy=0;entryX=1;entryY=0.5;entryDx=0;entryDy=0;strokeWidth=3;curved=0;" parent="1" source="p6ulh9Zvrn2zn8_a1JV_-6" target="p6ulh9Zvrn2zn8_a1JV_-13" edge="1">
          <mxGeometry relative="1" as="geometry">
            <Array as="points">
              <mxPoint x="980" y="158" />
              <mxPoint x="980" y="345" />
            </Array>
          </mxGeometry>
        </mxCell>
        <mxCell id="p6ulh9Zvrn2zn8_a1JV_-6" value="" style="rounded=1;whiteSpace=wrap;html=1;strokeWidth=3;" parent="1" vertex="1">
          <mxGeometry x="785" y="127.5" width="120" height="60" as="geometry" />
        </mxCell>
        <mxCell id="PQ8_HCiKu27J1-_mv-jU-14" style="edgeStyle=orthogonalEdgeStyle;rounded=0;orthogonalLoop=1;jettySize=auto;html=1;exitX=0;exitY=0.5;exitDx=0;exitDy=0;entryX=1;entryY=0.5;entryDx=0;entryDy=0;strokeWidth=3;" parent="1" source="p6ulh9Zvrn2zn8_a1JV_-7" target="p6ulh9Zvrn2zn8_a1JV_-14" edge="1">
          <mxGeometry relative="1" as="geometry" />
        </mxCell>
        <mxCell id="p6ulh9Zvrn2zn8_a1JV_-7" value="" style="rounded=1;whiteSpace=wrap;html=1;strokeWidth=3;" parent="1" vertex="1">
          <mxGeometry x="520" y="315" width="120" height="60" as="geometry" />
        </mxCell>
        <mxCell id="p6ulh9Zvrn2zn8_a1JV_-8" style="edgeStyle=orthogonalEdgeStyle;rounded=0;orthogonalLoop=1;jettySize=auto;html=1;exitX=1;exitY=0.5;exitDx=0;exitDy=0;entryX=0;entryY=0.5;entryDx=0;entryDy=0;strokeWidth=3;" parent="1" source="p6ulh9Zvrn2zn8_a1JV_-10" target="p6ulh9Zvrn2zn8_a1JV_-6" edge="1">
          <mxGeometry relative="1" as="geometry" />
        </mxCell>
        <mxCell id="p6ulh9Zvrn2zn8_a1JV_-9" style="edgeStyle=orthogonalEdgeStyle;rounded=1;orthogonalLoop=1;jettySize=auto;html=1;exitX=0.5;exitY=1;exitDx=0;exitDy=0;entryX=0.5;entryY=0;entryDx=0;entryDy=0;strokeWidth=3;curved=0;" parent="1" source="p6ulh9Zvrn2zn8_a1JV_-10" target="p6ulh9Zvrn2zn8_a1JV_-13" edge="1">
          <mxGeometry relative="1" as="geometry" />
        </mxCell>
        <mxCell id="p6ulh9Zvrn2zn8_a1JV_-10" value="" style="rhombus;whiteSpace=wrap;html=1;strokeWidth=3;rounded=0;" parent="1" vertex="1">
          <mxGeometry x="510" y="107.5" width="155" height="100" as="geometry" />
        </mxCell>
        <mxCell id="PQ8_HCiKu27J1-_mv-jU-9" style="edgeStyle=orthogonalEdgeStyle;rounded=0;orthogonalLoop=1;jettySize=auto;html=1;exitX=0;exitY=0.5;exitDx=0;exitDy=0;entryX=1;entryY=0.5;entryDx=0;entryDy=0;strokeWidth=3;" parent="1" source="p6ulh9Zvrn2zn8_a1JV_-13" target="p6ulh9Zvrn2zn8_a1JV_-7" edge="1">
          <mxGeometry relative="1" as="geometry" />
        </mxCell>
        <mxCell id="PQ8_HCiKu27J1-_mv-jU-27" style="edgeStyle=orthogonalEdgeStyle;rounded=1;orthogonalLoop=1;jettySize=auto;html=1;exitX=0.5;exitY=1;exitDx=0;exitDy=0;strokeWidth=3;curved=0;" parent="1" source="p6ulh9Zvrn2zn8_a1JV_-13" edge="1">
          <mxGeometry relative="1" as="geometry">
            <mxPoint x="500" y="345" as="targetPoint" />
            <Array as="points">
              <mxPoint x="815" y="450" />
              <mxPoint x="500" y="450" />
            </Array>
          </mxGeometry>
        </mxCell>
        <mxCell id="p6ulh9Zvrn2zn8_a1JV_-13" value="" style="rhombus;whiteSpace=wrap;html=1;strokeWidth=3;rounded=0;" parent="1" vertex="1">
          <mxGeometry x="725" y="295" width="180" height="100" as="geometry" />
        </mxCell>
        <mxCell id="p6ulh9Zvrn2zn8_a1JV_-42" style="edgeStyle=orthogonalEdgeStyle;rounded=0;orthogonalLoop=1;jettySize=auto;html=1;exitX=0;exitY=0.5;exitDx=0;exitDy=0;entryX=1;entryY=0.5;entryDx=0;entryDy=0;strokeWidth=3;" parent="1" source="p6ulh9Zvrn2zn8_a1JV_-14" target="p6ulh9Zvrn2zn8_a1JV_-15" edge="1">
          <mxGeometry relative="1" as="geometry" />
        </mxCell>
        <mxCell id="p6ulh9Zvrn2zn8_a1JV_-14" value="" style="rhombus;whiteSpace=wrap;html=1;strokeWidth=3;rounded=0;" parent="1" vertex="1">
          <mxGeometry x="270" y="295" width="200" height="100" as="geometry" />
        </mxCell>
        <mxCell id="p6ulh9Zvrn2zn8_a1JV_-15" value="" style="rounded=1;whiteSpace=wrap;html=1;strokeWidth=3;" parent="1" vertex="1">
          <mxGeometry x="30" y="315" width="120" height="60" as="geometry" />
        </mxCell>
        <mxCell id="p6ulh9Zvrn2zn8_a1JV_-16" value="" style="ellipse;whiteSpace=wrap;html=1;strokeWidth=3;" parent="1" vertex="1">
          <mxGeometry x="130" y="410" width="110" height="80" as="geometry" />
        </mxCell>
        <mxCell id="p6ulh9Zvrn2zn8_a1JV_-23" value="&lt;span style=&quot;font-size: 18px;&quot;&gt;GBN&lt;/span&gt;" style="text;html=1;align=center;verticalAlign=middle;whiteSpace=wrap;rounded=0;strokeWidth=3;" parent="1" vertex="1">
          <mxGeometry x="815" y="140" width="60" height="30" as="geometry" />
        </mxCell>
        <mxCell id="p6ulh9Zvrn2zn8_a1JV_-24" value="&lt;font style=&quot;font-size: 18px;&quot;&gt;SNR &amp;gt; Threshold&lt;/font&gt;" style="text;html=1;align=center;verticalAlign=middle;whiteSpace=wrap;rounded=0;strokeWidth=3;" parent="1" vertex="1">
          <mxGeometry x="557.5" y="140" width="60" height="32.5" as="geometry" />
        </mxCell>
        <mxCell id="p6ulh9Zvrn2zn8_a1JV_-25" value="&lt;font style=&quot;font-size: 18px;&quot;&gt;Estimate Channel Quality&lt;/font&gt;" style="text;html=1;align=center;verticalAlign=middle;whiteSpace=wrap;rounded=1;strokeWidth=3;" parent="1" vertex="1">
          <mxGeometry x="290" y="137.5" width="100" height="40" as="geometry" />
        </mxCell>
        <mxCell id="p6ulh9Zvrn2zn8_a1JV_-26" value="&lt;font style=&quot;font-size: 18px;&quot;&gt;&amp;nbsp;HARQ2&lt;/font&gt;" style="text;html=1;align=center;verticalAlign=middle;whiteSpace=wrap;rounded=0;strokeWidth=3;" parent="1" vertex="1">
          <mxGeometry x="60" y="330" width="60" height="30" as="geometry" />
        </mxCell>
        <mxCell id="p6ulh9Zvrn2zn8_a1JV_-27" value="&lt;font style=&quot;font-size: 18px;&quot;&gt;No&lt;/font&gt;" style="text;html=1;align=center;verticalAlign=middle;whiteSpace=wrap;rounded=0;strokeWidth=3;" parent="1" vertex="1">
          <mxGeometry x="517.5" y="207.5" width="100" height="37.5" as="geometry" />
        </mxCell>
        <mxCell id="p6ulh9Zvrn2zn8_a1JV_-28" value="&lt;font style=&quot;font-size: 15px;&quot;&gt;Moderate Channel Conditions?&lt;/font&gt;" style="text;html=1;align=center;verticalAlign=middle;whiteSpace=wrap;rounded=0;strokeWidth=3;" parent="1" vertex="1">
          <mxGeometry x="785" y="330" width="60" height="30" as="geometry" />
        </mxCell>
        <mxCell id="p6ulh9Zvrn2zn8_a1JV_-29" value="&lt;font style=&quot;font-size: 18px;&quot;&gt;Start&lt;/font&gt;" style="text;html=1;align=center;verticalAlign=middle;whiteSpace=wrap;rounded=0;strokeWidth=3;" parent="1" vertex="1">
          <mxGeometry x="70" y="145" width="80" height="35" as="geometry" />
        </mxCell>
        <mxCell id="p6ulh9Zvrn2zn8_a1JV_-30" value="&lt;font style=&quot;font-size: 18px;&quot;&gt;End&lt;/font&gt;" style="text;html=1;align=center;verticalAlign=middle;whiteSpace=wrap;rounded=0;strokeWidth=3;" parent="1" vertex="1">
          <mxGeometry x="155" y="440" width="60" height="30" as="geometry" />
        </mxCell>
        <mxCell id="p6ulh9Zvrn2zn8_a1JV_-31" value="&lt;font style=&quot;font-size: 15px;&quot;&gt;Poor Channel Conditions?&lt;/font&gt;" style="text;html=1;align=center;verticalAlign=middle;whiteSpace=wrap;rounded=0;strokeWidth=3;" parent="1" vertex="1">
          <mxGeometry x="340" y="330" width="60" height="30" as="geometry" />
        </mxCell>
        <mxCell id="p6ulh9Zvrn2zn8_a1JV_-32" value="&lt;font style=&quot;font-size: 18px;&quot;&gt;&amp;nbsp;HARQ1&lt;/font&gt;" style="text;html=1;align=center;verticalAlign=middle;whiteSpace=wrap;rounded=0;strokeWidth=3;" parent="1" vertex="1">
          <mxGeometry x="550" y="330" width="60" height="30" as="geometry" />
        </mxCell>
        <mxCell id="p6ulh9Zvrn2zn8_a1JV_-33" value="&lt;font style=&quot;font-size: 19px;&quot;&gt;Yes&lt;/font&gt;" style="text;html=1;align=center;verticalAlign=middle;whiteSpace=wrap;rounded=0;strokeWidth=3;" parent="1" vertex="1">
          <mxGeometry x="680" y="110" width="120" height="60" as="geometry" />
        </mxCell>
        <mxCell id="p6ulh9Zvrn2zn8_a1JV_-34" value="&lt;font style=&quot;font-size: 19px;&quot;&gt;Yes&lt;/font&gt;" style="text;html=1;align=center;verticalAlign=middle;whiteSpace=wrap;rounded=0;strokeWidth=3;" parent="1" vertex="1">
          <mxGeometry x="630" y="295" width="120" height="60" as="geometry" />
        </mxCell>
        <mxCell id="p6ulh9Zvrn2zn8_a1JV_-35" value="&lt;font style=&quot;font-size: 18px;&quot;&gt;No&lt;/font&gt;" style="text;html=1;align=center;verticalAlign=middle;whiteSpace=wrap;rounded=0;strokeWidth=3;" parent="1" vertex="1">
          <mxGeometry x="740" y="380" width="100" height="60" as="geometry" />
        </mxCell>
        <mxCell id="p6ulh9Zvrn2zn8_a1JV_-36" value="&lt;font style=&quot;font-size: 18px;&quot;&gt;No&lt;/font&gt;" style="text;html=1;align=center;verticalAlign=middle;whiteSpace=wrap;rounded=0;strokeWidth=3;" parent="1" vertex="1">
          <mxGeometry x="300" y="390" width="100" height="60" as="geometry" />
        </mxCell>
        <mxCell id="PQ8_HCiKu27J1-_mv-jU-18" style="edgeStyle=orthogonalEdgeStyle;rounded=1;orthogonalLoop=1;jettySize=auto;html=1;strokeWidth=3;curved=0;entryX=1;entryY=0.5;entryDx=0;entryDy=0;" parent="1" target="p6ulh9Zvrn2zn8_a1JV_-16" edge="1">
          <mxGeometry relative="1" as="geometry">
            <mxPoint x="300" y="490" as="targetPoint" />
            <mxPoint x="370" y="395" as="sourcePoint" />
            <Array as="points">
              <mxPoint x="370" y="450" />
            </Array>
          </mxGeometry>
        </mxCell>
        <mxCell id="p6ulh9Zvrn2zn8_a1JV_-37" value="&lt;font style=&quot;font-size: 18px;&quot;&gt;Yes&lt;/font&gt;" style="text;html=1;align=center;verticalAlign=middle;whiteSpace=wrap;rounded=0;strokeWidth=3;" parent="1" vertex="1">
          <mxGeometry x="160" y="295" width="120" height="60" as="geometry" />
        </mxCell>
        <mxCell id="PQ8_HCiKu27J1-_mv-jU-19" style="edgeStyle=orthogonalEdgeStyle;rounded=1;orthogonalLoop=1;jettySize=auto;html=1;curved=0;strokeWidth=3;entryX=0;entryY=0.5;entryDx=0;entryDy=0;" parent="1" source="p6ulh9Zvrn2zn8_a1JV_-15" target="p6ulh9Zvrn2zn8_a1JV_-16" edge="1">
          <mxGeometry relative="1" as="geometry">
            <mxPoint x="120" y="440" as="targetPoint" />
            <Array as="points">
              <mxPoint x="80" y="450" />
            </Array>
          </mxGeometry>
        </mxCell>
      </root>
    </mxGraphModel>
  </diagram>
</mxfile>
